<svg xmlns="http://www.w3.org/2000/svg" xmlns:xlink="http://www.w3.org/1999/xlink" width="18.642853" height="27.571426" viewBox="0 0 18.6429 27.5714" fill="none">
	<desc>
			Created with Pixso.
	</desc>
	
	<g filter="url(#filter_1_254_dd)">
		<path id="Vector" d="M14.1429 0.633926L14.1429 3.58035L12.3906 3.58035C11.7507 3.58035 11.3192 3.71429 11.096 3.98214C10.8728 4.25 10.7612 4.65179 10.7612 5.1875L10.7612 7.29688L14.0312 7.29688L13.596 10.6004L10.7612 10.6004L10.7612 19.0714L7.34598 19.0714L7.34598 10.6004L4.5 10.6004L4.5 7.29688L7.34598 7.29688L7.34598 4.86384C7.34598 3.47991 7.73288 2.40662 8.50668 1.64397C9.28052 0.881325 10.311 0.5 11.5982 0.5C12.692 0.5 13.5402 0.54464 14.1429 0.633926Z" fill="#CBC6C6" fill-opacity="1.000000" fill-rule="nonzero"/>
	</g>
	<path id="Vector" d="M14.1429 3.58035L12.3906 3.58035C11.7507 3.58035 11.3192 3.71429 11.096 3.98214C10.8728 4.25 10.7612 4.65179 10.7612 5.1875L10.7612 7.29688L14.0312 7.29688L13.596 10.6004L10.7612 10.6004L10.7612 19.0714L7.34598 19.0714L7.34598 10.6004L4.5 10.6004L4.5 7.29688L7.34598 7.29688L7.34598 4.86384C7.34598 3.47991 7.73288 2.40662 8.50668 1.64397C9.28052 0.881325 10.311 0.5 11.5982 0.5C12.692 0.5 13.5402 0.54464 14.1429 0.633926L14.1429 3.58035Z" stroke="#FFFFFF" stroke-opacity="1.000000" stroke-width="1.000000"/>
</svg>