<svg xmlns="http://www.w3.org/2000/svg" xmlns:xlink="http://www.w3.org/1999/xlink" width="17.160004" height="20.000000" viewBox="0 0 17.16 20" fill="none">
	<desc>
			Created with Pixso.
	</desc>
	<defs>
		<clipPath id="clip1_257">
			<rect id="Link" width="17.160000" height="20.000000" transform="matrix(1 0 0 -1 0 20)" fill="white" fill-opacity="0"/>
		</clipPath>
	</defs>
	<g clip-path="url(#clip1_257)">
		<path id="Vector" d="M10.6002 12.0201C10.6002 12.0201 10.7397 11.8806 11.0187 11.6016C11.2977 11.3225 11.4372 10.7887 11.4372 10C11.4372 9.2113 11.1582 8.53795 10.6002 7.97991C10.0421 7.42188 9.36877 7.14285 8.58011 7.14285C7.79141 7.14285 7.11804 7.42188 6.56 7.97991C6.00198 8.53795 5.72296 9.2113 5.72296 10C5.72296 10.7887 6.00198 11.4621 6.56 12.0201C7.11804 12.5781 7.79141 12.8571 8.58011 12.8571C9.36877 12.8571 10.0421 12.5781 10.6002 12.0201ZM11.6939 6.88616C11.6939 6.88616 11.9078 7.10007 12.3357 7.5279C12.7635 7.95573 12.9774 8.77976 12.9774 10C12.9774 11.2202 12.5496 12.2582 11.6939 13.1138C10.8383 13.9695 9.80032 14.3973 8.58011 14.3973C7.35986 14.3973 6.3219 13.9695 5.46625 13.1138C4.6106 12.2582 4.18277 11.2202 4.18277 10C4.18277 8.77976 4.6106 7.74181 5.46625 6.88616C6.3219 6.0305 7.35986 5.60268 8.58011 5.60268C9.80032 5.60268 10.8383 6.0305 11.6939 6.88616ZM13.8814 4.69866C13.8814 4.69866 13.9317 4.74889 14.0321 4.84933C14.1325 4.94978 14.1828 5.14137 14.1828 5.4241C14.1828 5.70685 14.0823 5.94866 13.8814 6.14955C13.6805 6.35045 13.4387 6.45089 13.156 6.45089C12.8733 6.45089 12.6314 6.35045 12.4305 6.14955C12.2296 5.94866 12.1292 5.70685 12.1292 5.4241C12.1292 5.14137 12.2296 4.89955 12.4305 4.69866C12.6314 4.49776 12.8733 4.39732 13.156 4.39732C13.4387 4.39732 13.6805 4.49776 13.8814 4.69866ZM9.4339 2.96317C9.4339 2.96317 9.30463 2.9641 9.04605 2.96596C8.78751 2.96782 8.63217 2.96875 8.58011 2.96875C8.52802 2.96875 8.24341 2.96689 7.72629 2.96317C7.2092 2.95945 6.81671 2.95945 6.54886 2.96317C6.28098 2.96689 5.922 2.97805 5.47183 2.99665C5.0217 3.01525 4.63849 3.05245 4.3223 3.10826C4.00607 3.16406 3.74005 3.23289 3.52429 3.31473C3.15228 3.46354 2.82489 3.67931 2.54214 3.96205C2.2594 4.24479 2.04364 4.57217 1.89484 4.9442C1.81299 5.15997 1.74417 5.42596 1.68835 5.74219C1.63254 6.05841 1.59534 6.44159 1.57675 6.89174C1.55814 7.34189 1.547 7.70089 1.54327 7.96875C1.53955 8.2366 1.53955 8.62909 1.54327 9.14621C1.547 9.66331 1.54886 9.94791 1.54886 10C1.54886 10.0521 1.547 10.3367 1.54327 10.8538C1.53955 11.3709 1.53955 11.7634 1.54327 12.0312C1.547 12.2991 1.55814 12.6581 1.57675 13.1083C1.59534 13.5584 1.63254 13.9416 1.68835 14.2578C1.74417 14.574 1.81299 14.84 1.89484 15.0558C2.04364 15.4278 2.2594 15.7552 2.54214 16.0379C2.82489 16.3207 3.15228 16.5365 3.52429 16.6853C3.74005 16.7671 4.00607 16.8359 4.3223 16.8917C4.63849 16.9475 5.0217 16.9847 5.47183 17.0033C5.922 17.0219 6.28098 17.0331 6.54886 17.0368C6.81671 17.0405 7.2092 17.0405 7.72629 17.0368C8.24341 17.0331 8.52802 17.0312 8.58011 17.0312C8.63217 17.0312 8.91678 17.0331 9.4339 17.0368C9.95099 17.0405 10.3435 17.0405 10.6114 17.0368C10.8792 17.0331 11.2382 17.0219 11.6884 17.0033C12.1385 16.9847 12.5217 16.9475 12.8379 16.8917C13.1541 16.8359 13.4201 16.7671 13.6359 16.6853C14.0079 16.5365 14.3353 16.3207 14.618 16.0379C14.9008 15.7552 15.1165 15.4278 15.2654 15.0558C15.3472 14.84 15.416 14.574 15.4718 14.2578C15.5276 13.9416 15.5648 13.5584 15.5834 13.1083C15.6021 12.6581 15.6132 12.2991 15.6169 12.0312C15.6206 11.7634 15.6206 11.3709 15.6169 10.8538C15.6132 10.3367 15.6114 10.0521 15.6114 10C15.6114 9.94791 15.6132 9.66331 15.6169 9.14621C15.6206 8.62909 15.6206 8.2366 15.6169 7.96875C15.6132 7.70089 15.6021 7.34189 15.5834 6.89174C15.5648 6.44159 15.5276 6.05841 15.4718 5.74219C15.416 5.42596 15.3472 5.15997 15.2654 4.9442C15.1165 4.57217 14.9008 4.24479 14.618 3.96205C14.3353 3.67931 14.0079 3.46354 13.6359 3.31473C13.4201 3.23289 13.1541 3.16406 12.8379 3.10826C12.5217 3.05245 12.1385 3.01525 11.6884 2.99665C11.2382 2.97805 10.8792 2.96689 10.6114 2.96317C10.3435 2.95945 9.95099 2.95945 9.4339 2.96317ZM17.0957 6.46205C17.1329 7.11681 17.1515 8.29613 17.1515 10C17.1515 11.7039 17.1329 12.8832 17.0957 13.5379C17.0213 15.0856 16.56 16.2835 15.7118 17.1317C14.8636 17.9799 13.6656 18.4412 12.118 18.5156C11.4633 18.5528 10.284 18.5714 8.58011 18.5714C6.87622 18.5714 5.6969 18.5528 5.04214 18.5156C3.49454 18.4412 2.2966 17.9799 1.44839 17.1317C0.600189 16.2835 0.138885 15.0856 0.0644836 13.5379C0.0272827 12.8832 0.00866699 11.7039 0.00866699 10C0.00866699 8.29613 0.0272827 7.11681 0.0644836 6.46205C0.138885 4.91443 0.600189 3.71651 1.44839 2.8683C2.2966 2.02009 3.49454 1.55878 5.04214 1.48438C5.6969 1.44717 6.87622 1.42857 8.58011 1.42857C10.284 1.42857 11.4633 1.44717 12.118 1.48438C13.6656 1.55878 14.8636 2.02009 15.7118 2.8683C16.56 3.71651 17.0213 4.91443 17.0957 6.46205Z" fill="#CBC6C6" fill-opacity="1.000000" fill-rule="nonzero"/>
	</g>
</svg>