<svg xmlns="http://www.w3.org/2000/svg" xmlns:xlink="http://www.w3.org/1999/xlink" width="254.930481" height="59.589996" viewBox="0 0 254.93 59.59" fill="none">
	<desc>
			Created with Pixso.
	</desc>
	<defs>
		<clipPath id="clip1_228">
			<rect id="shoplogo.svg" width="254.930481" height="59.590000" fill="white" fill-opacity="0"/>
		</clipPath>
	</defs>
	<g clip-path="url(#clip1_228)">
		<path id="Vector" d="M19.9802 25.3656C19.9802 25.3656 28.0424 43.5612 28.2335 43.8799C28.5203 44.2623 30.5598 46.1743 33.4596 45.537C35.4991 45.1864 36.1364 41.8086 35.9452 41.2669C35.4672 39.9604 25.9073 22.2108 25.9073 22.2108L23.9953 26.1304L19.9802 25.3656Z" fill="#FF1E5D" fill-opacity="1.000000" fill-rule="nonzero"/>
		<path id="Vector" d="M32.9816 30.5279C34.575 28.9665 40.6614 23.358 42.0954 22.0515C42.5734 27.2457 44.9315 30.751 51.6234 32.3124C50.7311 32.9179 42.4141 38.4945 39.1637 40.279C36.3913 38.9088 32.5036 33.7464 32.9816 30.5279Z" fill="#FF1E5D" fill-opacity="1.000000" fill-rule="nonzero"/>
		<path id="Vector" d="M22.2745 23.5173C22.2745 23.5173 8.34894 22.7207 2.03943 16.1244C-1.27466 10.3884 4.74805 3.76022 10.2291 2.86797C13.5113 2.42184 24.792 6.02274 24.3458 21.5416C23.0074 12.2048 16.3474 5.51288 6.15015 6.78752C9.11377 7.87097 14.8815 10.739 16.6023 13.575C14.7222 11.8861 10.8664 11.5037 9.59174 11.6949C16.6023 13.7981 22.2745 23.5173 22.2745 23.5173Z" fill="#FF1E5D" fill-opacity="1.000000" fill-rule="nonzero"/>
		<path id="Vector" d="M44.2623 21.9559C48.5005 17.4627 56.5945 11.2169 58.2834 10.9301C59.9724 10.6434 59.9405 18.6737 58.634 22.3383C53.4079 17.1122 56.7857 12.6509 56.7857 12.6509C56.7857 12.6509 51.2091 15.4233 57.5505 23.4855C57.0406 24.2821 53.9496 27.9468 51.7827 30.5279C48.2137 29.6675 44.804 27.0226 44.2623 21.9559Z" fill="#FF1E5D" fill-opacity="1.000000" fill-rule="nonzero"/>
		<path id="Vector" d="M74.2166 1.65704C71.1256 3.0273 63.637 36.933 74.3122 47.7676C76.8615 42.7964 78.8691 43.2107 79.2196 42.6053C78.4867 36.3595 77.212 24.9513 80.5261 17.2078C81.6096 15.9969 78.9647 30.974 82.9798 35.5309C83.2985 35.754 83.5216 35.9133 83.7128 36.0408C84.7962 36.4232 87.1543 36.2639 88.2378 34.7343C86.3258 27.7556 92.6353 14.4992 92.6353 14.4992C92.6353 14.4992 86.3258 42.669 98.1482 46.3655C98.5943 46.5567 101.749 42.3503 101.749 41.9679C100.857 37.889 100.06 31.1334 100.283 24.4733C100.506 18.3869 101.717 10.8345 101.526 8.38083C100.857 6.75566 99.8052 5.41727 97.8295 5.5766C90.3728 7.93471 85.5929 22.7525 85.5929 22.7525L85.3061 12.2685C85.3061 12.2685 84.7006 10.3884 82.6931 10.7708C80.6536 11.1532 78.2318 16.7298 78.2318 16.7298C78.2318 16.7298 77.9768 1.40211 74.2166 1.65704Z" fill="#FF1E5D" fill-opacity="1.000000" fill-rule="nonzero"/>
		<path id="Vector" d="M118.065 16.5386C117.778 14.9772 116.981 14.1805 114.4 14.1805C113.062 14.0849 111.405 14.9134 109.843 16.3156C106.911 18.8011 102.96 28.0423 102.45 30.7829C101.94 33.5552 101.908 36.4232 103.247 37.7616C103.884 38.3352 105.701 39.0362 109.493 38.4308C110.704 38.2077 112.488 36.0089 112.488 36.0089C112.488 36.0089 113.062 40.0559 116.726 41.0438C119.722 41.6493 121.92 40.0241 120.327 38.1758C118.415 35.1485 118.861 23.7085 118.702 21.223C117.045 20.7768 114.974 21.5098 113.986 22.6251C113.763 25.9073 111.245 32.5355 109.142 33.619C107.613 32.8223 110.927 21.9559 112.424 18.355C114.336 15.0728 114.4 18.8649 115.611 18.9286C116.28 19.0242 118.351 18.1319 118.065 16.5386Z" fill="#FF1E5D" fill-opacity="1.000000" fill-rule="nonzero"/>
		<path id="Vector" d="M170.166 18.2594C169.178 26.9589 164.111 35.3716 163.219 35.0848C160.797 31.8663 161.976 20.1077 161.881 16.8892C161.53 14.9134 157.037 13.9575 155.794 14.5948C154.615 16.8573 154.074 26.4172 154.074 26.4172C154.074 26.4172 150.154 37.4748 148.083 37.2517C147.222 37.1561 146.33 34.6068 147.35 26.9589C149.612 26.1941 153.086 23.2624 153.149 20.7131C153.309 15.1046 149.166 12.9377 145.055 16.698C142.028 18.7693 136.292 36.8056 135.687 36.8693C135.241 36.9968 135.018 36.4232 133.424 32.0575C135.75 30.4005 142.315 20.7131 138.395 18.9286C136.133 18.4187 132.564 22.6888 131.831 23.6448C131.831 23.6448 132.405 16.5386 131.48 12.7784C129.919 9.59177 129.313 9.84669 127.529 9.55991C126.35 9.30498 124.98 9.87857 124.31 11.5675C122.972 14.8816 120.741 40.7889 123.418 46.6204C123.832 48.2137 125.171 50.9861 125.808 50.9861C126.414 50.9861 128.103 48.9467 129.122 46.9709C130.397 44.5172 130.747 37.8891 131.321 37.8572C132.213 39.323 133.807 41.3625 136.547 41.0119C138.587 40.6614 138.3 34.5431 139.766 32.0575C140.562 38.2077 143.749 39.9922 144.673 40.279C146.585 40.6295 148.561 40.8845 151.269 38.3671C152.034 37.5385 153.914 33.364 154.552 31.7707C154.838 34.4156 158.216 39.1 161.467 38.8132C165.067 38.5901 166.247 35.6584 167.999 32.5992C167.999 34.6706 168.031 36.6463 170.262 38.7813C172.843 40.8526 175.392 39.8648 176.38 38.4308C173.831 32.886 175.073 20.4901 173.225 18.6737C172.333 17.877 170.325 17.877 170.166 18.2594ZM150.09 17.2078C151.174 16.5705 152.066 23.9635 147.828 24.6008C147.509 22.7207 148.816 17.9726 150.09 17.2078ZM131.512 28.6797C130.843 26.3216 134.794 22.4339 136.483 20.745C136.356 22.88 132.628 28.4885 131.512 28.6797Z" fill="#FF1E5D" fill-opacity="1.000000" fill-rule="nonzero"/>
		<path id="Vector" d="M191.931 14.2442C188.33 12.1411 184.729 18.9605 184.378 18.7374C184.028 18.5143 183.869 16.9529 183.231 13.4157C182.466 12.3004 180.268 11.6312 179.439 12.6509C175.424 30.7829 176.794 52.8981 178.196 55.1287C179.726 58.5066 180.045 60.7053 183.327 55.5111C185.494 51.496 185.621 47.9588 185.43 38.3671C189.158 38.7813 191.198 35.6903 191.644 34.8618C192.759 33.0772 196.615 16.921 191.931 14.2442ZM186.035 34.9574C185.557 20.7131 184.41 20.0439 188.649 17.0166C189.605 16.921 188.011 33.7464 186.035 34.9574Z" fill="#FF1E5D" fill-opacity="1.000000" fill-rule="nonzero"/>
		<path id="Vector" d="M207.227 32.2806L207.227 30.0818C207.673 30.4005 208.151 30.6554 208.661 30.8466C209.17 31.0059 209.68 31.1015 210.222 31.1015C210.541 31.1015 210.796 31.0697 211.019 31.0378C211.242 31.0059 211.433 30.9103 211.592 30.8147C211.752 30.7191 211.847 30.6235 211.943 30.4961C212.007 30.3686 212.07 30.2411 212.07 30.1137C212.07 29.9225 212.007 29.7631 211.879 29.6038C211.752 29.4445 211.592 29.317 211.401 29.1895C211.178 29.0621 210.955 28.9346 210.668 28.8071C210.381 28.6797 210.063 28.5522 209.744 28.4566C208.915 28.138 208.278 27.7556 207.864 27.2776C207.45 26.8314 207.227 26.2578 207.227 25.6205C207.227 25.1107 207.354 24.6645 207.577 24.314C207.8 23.9316 208.119 23.6448 208.501 23.4217C208.884 23.1987 209.33 23.0075 209.84 22.9119C210.349 22.7844 210.891 22.7525 211.465 22.7525C212.038 22.7525 212.516 22.7844 212.962 22.8481C213.409 22.9119 213.791 23.0075 214.173 23.1349L214.173 25.1744C213.982 25.0469 213.791 24.9513 213.568 24.8876C213.345 24.792 213.122 24.7283 212.899 24.6645C212.676 24.6008 212.453 24.5689 212.23 24.5371C212.007 24.5052 211.783 24.5052 211.592 24.5052C211.305 24.5052 211.051 24.5371 210.827 24.5689C210.604 24.6008 210.413 24.6964 210.254 24.7601C210.095 24.8557 209.967 24.9513 209.903 25.0788C209.808 25.2063 209.776 25.3337 209.776 25.4931C209.776 25.6524 209.84 25.8117 209.903 25.9392C209.967 26.0667 210.126 26.1941 210.318 26.3216C210.509 26.449 210.7 26.5446 210.955 26.6721C211.21 26.7996 211.497 26.8952 211.815 27.0226C212.261 27.182 212.644 27.3732 212.994 27.5325C213.345 27.7237 213.632 27.9149 213.887 28.1698C214.142 28.3929 214.333 28.6797 214.46 28.9665C214.588 29.2533 214.651 29.6038 214.651 30.0181C214.651 30.5598 214.524 31.0378 214.301 31.3883C214.078 31.7707 213.759 32.0575 213.377 32.2806C212.994 32.5036 212.516 32.663 212.007 32.7904C211.497 32.9179 210.923 32.9498 210.349 32.9498C209.744 32.9498 209.202 32.9179 208.661 32.8223C208.087 32.5992 207.609 32.4718 207.227 32.2806Z" fill="#FF1E5D" fill-opacity="1.000000" fill-rule="nonzero"/>
		<path id="Vector" d="M226.028 32.663L223.574 32.663L223.574 28.6797L219.113 28.6797L219.113 32.663L216.691 32.663L216.691 22.8481L219.113 22.8481L219.113 26.7677L223.574 26.7677L223.574 22.8481L226.028 22.8481L226.028 32.663Z" fill="#FF1E5D" fill-opacity="1.000000" fill-rule="nonzero"/>
		<path id="Vector" d="M233.357 32.8223C231.796 32.8223 230.553 32.3762 229.565 31.452C228.577 30.5279 228.099 29.3489 228.099 27.883C228.099 26.3216 228.609 25.0788 229.597 24.1228C230.585 23.1668 231.891 22.6888 233.516 22.6888C235.046 22.6888 236.289 23.1349 237.245 24.0591C238.201 24.9832 238.679 26.1941 238.679 27.6918C238.679 29.2214 238.201 30.4642 237.213 31.4202C236.257 32.3762 234.95 32.8223 233.357 32.8223ZM233.484 24.6008C232.624 24.6008 231.955 24.8876 231.445 25.4612C230.935 26.0348 230.68 26.7996 230.68 27.7874C230.68 28.7753 230.935 29.5401 231.445 30.0818C231.955 30.6554 232.592 30.9422 233.421 30.9422C234.249 30.9422 234.918 30.6554 235.428 30.1137C235.906 29.5719 236.161 28.8071 236.161 27.8193C236.161 26.7996 235.938 26.0029 235.46 25.4293C234.95 24.8557 234.313 24.6008 233.484 24.6008Z" fill="#FF1E5D" fill-opacity="1.000000" fill-rule="nonzero"/>
		<path id="Vector" d="M243.236 29.2851L243.236 32.663L240.814 32.663L240.814 22.8481L244.638 22.8481C247.346 22.8481 248.716 23.8997 248.716 25.971C248.716 26.9589 248.334 27.7556 247.537 28.361C246.741 28.9665 245.721 29.2851 244.415 29.2851L243.236 29.2851ZM243.236 24.5371L243.236 27.5962L244.191 27.5962C245.498 27.5962 246.135 27.0864 246.135 26.0348C246.135 25.0151 245.498 24.5371 244.191 24.5371L243.236 24.5371Z" fill="#FF1E5D" fill-opacity="1.000000" fill-rule="nonzero"/>
	</g>
</svg>