<svg xmlns="http://www.w3.org/2000/svg" xmlns:xlink="http://www.w3.org/1999/xlink" width="20.000000" height="20.000000" viewBox="0 0 20 20" fill="none">
	<desc>
			Created with Pixso.
	</desc>
	<defs>
		<clipPath id="clip1_255">
			<rect id="Link" width="20.000000" height="20.000000" transform="matrix(1 0 0 -1 0 20)" fill="white" fill-opacity="0"/>
		</clipPath>
	</defs>
	<g clip-path="url(#clip1_255)">
		<path id="Vector" d="M19.6874 0.122772C19.9329 0.301338 20.0334 0.539436 19.9887 0.837051L17.1316 17.9799C17.0944 18.1957 16.9753 18.3631 16.7744 18.4821C16.6703 18.5417 16.555 18.5714 16.4285 18.5714C16.3466 18.5714 16.2573 18.5528 16.1606 18.5156L11.1048 16.4509L8.4039 19.7433C8.26999 19.9144 8.08771 20 7.85703 20C7.76031 20 7.67847 19.9851 7.61151 19.9554C7.47012 19.9033 7.35666 19.8158 7.27109 19.6931C7.18555 19.5703 7.14276 19.4345 7.14276 19.2857L7.14276 15.3906L16.7856 3.57143L4.8548 13.8951L0.44632 12.0871C0.171021 11.9829 0.0222168 11.7783 -9.15527e-05 11.4732C-0.0149841 11.1756 0.104065 10.9561 0.357025 10.8147L18.9285 0.100449C19.0401 0.0334778 19.1591 0 19.2856 0C19.4344 0 19.5684 0.0409241 19.6874 0.122772Z" fill="#CBC6C6" fill-opacity="1.000000" fill-rule="nonzero"/>
	</g>
</svg>